<?xml version="1.0" encoding="UTF-8" standalone="no"?><!DOCTYPE svg PUBLIC "-//W3C//DTD SVG 1.1//EN" "http://www.w3.org/Graphics/SVG/1.1/DTD/svg11.dtd"><svg width="100%" height="100%" viewBox="0 0 461 455" version="1.1" xmlns="http://www.w3.org/2000/svg" xmlns:xlink="http://www.w3.org/1999/xlink" xml:space="preserve" xmlns:serif="http://www.serif.com/" style="fill-rule:evenodd;clip-rule:evenodd;stroke-linejoin:round;stroke-miterlimit:2;"><path d="M460.234,285.094l-60.75,-105.469l32.063,-53.906c2.562,-4.5 2.562,-10.063 -0,-14.563l-32.063,-53.906c-1.625,-2.906 -4.718,-4.719 -8.125,-4.719l-118.437,0l-27.313,-47.812c-1.625,-2.906 -4.718,-4.719 -8.125,-4.719l-63.25,0c-3.406,0 -6.5,1.813 -8.125,4.719l-60.75,105.437l-63.25,0c-3.406,0 -6.5,1.813 -8.125,4.719l-32.062,53.906c-2.563,4.5 -2.563,10.063 -0,14.563l54.25,97.844l-27.313,47.812c-2.562,4.5 -2.562,10.063 0,14.563l32.063,53.906c1.625,2.906 4.719,4.719 8.125,4.719l118.437,-0l27.313,47.812c1.625,2.906 4.719,4.719 8.125,4.719l63.25,-0c3.406,-0 6.5,-1.813 8.125,-4.719l60.75,-105.438l54.25,0c3.406,0 6.5,-1.812 8.125,-4.718l32.062,-53.906c2.563,-4.5 2.563,-10.063 0,-14.563l10.75,13.719Z" style="fill:url(#_Radial1);fill-rule:nonzero;"/><path d="M286.172,454.719l-63.25,-0l-35.438,-57.25l-118.437,-0l36.312,-57.25l60.75,-0l-132.125,-222.188l71.375,0l68.875,-113.312l32.063,57.25l-32.063,56.062l244.625,0l-32.062,53.907l60.75,105.437l-60.75,0l-31.75,-56.063l-124.938,233.407l56.063,-0Z" style="fill:#fff;fill-rule:nonzero;"/><path d="M313.484,194.719l-161.625,-0l78.25,132.125l83.375,-132.125Z" style="fill:url(#_Radial2);fill-rule:nonzero;"/><defs><radialGradient id="_Radial1" cx="0" cy="0" r="1" gradientUnits="userSpaceOnUse" gradientTransform="matrix(-1.19643e-13,312.5,-312.5,-1.19643e-13,226.422,257.75)"><stop offset="0" style="stop-color:#665cee;stop-opacity:1"/><stop offset="1" style="stop-color:#332e91;stop-opacity:1"/></radialGradient><radialGradient id="_Radial2" cx="0" cy="0" r="1" gradientUnits="userSpaceOnUse" gradientTransform="matrix(-1.19643e-13,312.5,-312.5,-1.19643e-13,226.422,257.75)"><stop offset="0" style="stop-color:#665cee;stop-opacity:1"/><stop offset="1" style="stop-color:#332e91;stop-opacity:1"/></radialGradient></defs></svg>